HIERARCHY
ROOT root
{
	OFFSET 0.000000 0.000000 0.000000
	CHANNELS 6 Xposition Yposition Zposition Zrotation Yrotation Xrotation
	JOINT lhip
	{
		OFFSET 0.058581 -0.082280 -0.017664
		CHANNELS 3 Zrotation Yrotation Xrotation
		JOINT lknee
		{
			OFFSET 0.043451 -0.386469 0.008037
			CHANNELS 3 Zrotation Yrotation Xrotation
			JOINT lankle
			{
				OFFSET -0.014790 -0.426874 -0.037428
				CHANNELS 3 Zrotation Yrotation Xrotation
				JOINT ltoe
				{
					OFFSET 0.041054 -0.060286 0.122042
					CHANNELS 3 Zrotation Yrotation Xrotation
					End Site
					{
						OFFSET 0.000000 0.000000 0.000000
					}
				}
			}
		}
	}
	JOINT rhip
	{
		OFFSET -0.060310 -0.090513 -0.013543
		CHANNELS 3 Zrotation Yrotation Xrotation
		JOINT rknee
		{
			OFFSET -0.043257 -0.383688 -0.004843
			CHANNELS 3 Zrotation Yrotation Xrotation
			JOINT rankle
			{
				OFFSET 0.019056 -0.420046 -0.034562
				CHANNELS 3 Zrotation Yrotation Xrotation
				JOINT rtoe
				{
					OFFSET -0.034840 -0.062106 0.130323
					CHANNELS 3 Zrotation Yrotation Xrotation
					End Site
					{
						OFFSET 0.000000 0.000000 0.000000
					}
				}
			}
		}
	}
	JOINT lowerback
	{
		OFFSET 0.004439 0.124404 -0.038385
		CHANNELS 3 Zrotation Yrotation Xrotation
		JOINT upperback
		{
			OFFSET 0.004488 0.137956 0.026820
			CHANNELS 3 Zrotation Yrotation Xrotation
			JOINT chest
			{
				OFFSET -0.002265 0.056032 0.002855
				CHANNELS 3 Zrotation Yrotation Xrotation
				JOINT lowerneck
				{
					OFFSET -0.013390 0.211636 -0.033468
					CHANNELS 3 Zrotation Yrotation Xrotation
					JOINT upperneck
					{
						OFFSET 0.010113 0.088937 0.050410
						CHANNELS 3 Zrotation Yrotation Xrotation
						End Site
						{
							OFFSET 0.000000 0.000000 0.000000
						}
					}
				}
				JOINT lclavicle
				{
					OFFSET 0.071702 0.114000 -0.018898
					CHANNELS 3 Zrotation Yrotation Xrotation
					JOINT lshoulder
					{
						OFFSET 0.122921 0.045205 -0.019046
						CHANNELS 3 Zrotation Yrotation Xrotation
						JOINT lelbow
						{
							OFFSET 0.255332 -0.015649 -0.022946
							CHANNELS 3 Zrotation Yrotation Xrotation
							JOINT lwrist
							{
								OFFSET 0.265709 0.012698 -0.007375
								CHANNELS 3 Zrotation Yrotation Xrotation
								End Site
								{
									OFFSET 0.000000 0.000000 0.000000
								}
							}
						}
					}
				}
				JOINT rclavicle
				{
					OFFSET -0.082954 0.112472 -0.023707
					CHANNELS 3 Zrotation Yrotation Xrotation
					JOINT rshoulder
					{
						OFFSET -0.113228 0.046853 -0.008472
						CHANNELS 3 Zrotation Yrotation Xrotation
						JOINT relbow
						{
							OFFSET -0.260127 -0.014369 -0.031269
							CHANNELS 3 Zrotation Yrotation Xrotation
							JOINT rwrist
							{
								OFFSET -0.269108 0.006794 -0.006027
								CHANNELS 3 Zrotation Yrotation Xrotation
								End Site
								{
									OFFSET 0.000000 0.000000 0.000000
								}
							}
						}
					}
				}
			}
		}
	}
}
MOTION
Frames: 11
Frame Time: 0.033333
-0.198749 0.193033 0.908286 131.601585 -27.398510 132.382885 8.621532 -23.008368 -60.117438 -12.667368 -14.055902 21.891810 -7.282738 1.823667 -3.745995 0.000000 -0.000000 0.000000 -24.805934 -23.238289 -78.282055 1.427883 -20.136577 48.708367 5.997250 -9.433390 -17.668967 0.000000 -0.000000 0.000000 22.518574 -11.199773 44.849990 0.958140 6.325178 -1.925926 3.151245 2.295028 12.231111 3.974361 -18.153409 -8.515713 5.173178 -7.939542 -15.422151 -8.510788 -13.175216 -2.946872 -70.607925 -5.831685 32.333502 -21.403149 -72.273955 58.288224 43.317556 -3.531331 -12.864712 -11.540555 24.524813 -3.927946 -15.073785 14.906265 -36.791707 -2.698495 10.201884 -27.901027 -27.306680 12.528644 -5.758828 
-0.199062 0.193804 0.908731 131.371500 -27.428667 132.605729 8.633317 -22.944693 -60.146086 -12.616846 -14.068246 21.593172 -7.673354 1.563537 -3.483605 0.000000 -0.000000 0.000000 -24.773554 -23.240302 -78.398503 1.281789 -20.146811 48.603746 6.036248 -9.372978 -17.569408 0.000000 -0.000000 0.000000 22.545474 -11.106450 44.673471 0.968613 6.400825 -2.043553 3.217336 2.288782 12.260596 4.014430 -18.174511 -8.728387 5.065907 -8.069524 -15.422768 -8.409850 -13.396721 -2.812422 -70.755078 -5.978183 32.368998 -20.904330 -72.135700 57.859581 43.246544 -3.704897 -13.126549 -11.580040 24.622841 -3.721486 -15.317261 14.655910 -36.869520 -2.490608 10.233702 -27.382610 -26.734128 12.493673 -5.810488 
-0.199816 0.194731 0.909176 131.183233 -27.441308 132.686092 8.558650 -22.876680 -60.134889 -12.690057 -14.277886 21.509694 -7.865908 1.412696 -3.255107 0.000000 -0.000000 0.000000 -24.746123 -23.204090 -78.387473 1.183588 -20.124970 48.333899 6.126309 -9.378657 -17.446398 0.000000 -0.000000 0.000000 22.611227 -11.141095 44.556509 0.924481 6.434944 -2.081586 3.210639 2.273789 12.293724 4.008309 -18.210332 -8.902240 4.986344 -7.942175 -15.367459 -8.301658 -13.559031 -2.850108 -70.848866 -5.975771 32.437866 -20.316246 -71.984964 57.317744 43.059713 -3.699223 -12.929354 -11.739774 24.725871 -3.925371 -15.525178 14.713866 -36.921770 -2.329375 9.851507 -27.124813 -25.585094 12.662905 -4.912258 
-0.200320 0.195724 0.909510 130.983647 -27.515153 132.692430 8.458513 -22.870951 -60.025128 -12.839158 -14.327512 21.419235 -7.829509 1.421567 -3.169421 0.000000 -0.000000 0.000000 -24.767201 -23.200963 -78.316233 1.225787 -19.848344 48.239612 6.065073 -9.342520 -17.577804 0.000000 -0.000000 0.000000 22.698431 -11.184961 44.467337 0.859662 6.420777 -2.081503 3.181158 2.231189 12.287438 4.011065 -18.427129 -9.038820 5.072119 -7.832007 -15.490330 -8.419136 -13.873363 -2.754956 -70.610632 -5.965388 32.354665 -20.163513 -71.997623 56.949574 42.861840 -3.762176 -12.745272 -11.999993 24.891943 -4.060862 -15.456957 14.615995 -36.765728 -2.307998 9.733867 -26.581988 -25.042117 12.755498 -4.224000 
-0.200869 0.196449 0.909922 130.695630 -27.496803 132.595144 8.294647 -22.911368 -59.773570 -12.841263 -14.378263 21.400893 -7.668987 1.443938 -3.258285 0.000000 -0.000000 0.000000 -24.779818 -23.096944 -78.185970 1.380012 -19.593215 48.037274 6.126718 -9.346973 -17.520002 0.000000 -0.000000 0.000000 22.680376 -11.201550 44.704571 0.794127 6.503513 -2.166776 3.168665 2.298198 12.242219 4.038462 -18.668610 -9.253361 5.185413 -7.749162 -15.451106 -8.349856 -14.070737 -2.755606 -70.588862 -5.981039 32.410884 -19.895129 -71.919103 56.605754 42.990245 -4.149373 -12.752846 -12.275740 25.003014 -4.241020 -15.582099 14.303632 -36.779401 -1.989156 9.548501 -26.453723 -23.969859 12.611373 -3.494653 
-0.202024 0.196867 0.910000 130.445791 -27.342987 132.599434 8.386793 -22.919119 -59.864974 -12.884221 -14.317091 21.674060 -7.728896 1.581362 -3.484802 0.000000 -0.000000 0.000000 -24.864507 -22.909811 -78.101546 1.682268 -19.441149 47.714384 6.230908 -9.464576 -17.495203 0.000000 -0.000000 0.000000 22.667760 -11.006649 44.581632 0.861084 6.720810 -2.015334 3.230504 2.247442 12.320274 4.244171 -18.516996 -9.631056 4.941493 -7.954415 -15.242588 -8.446312 -14.050927 -2.719422 -70.566858 -6.269384 32.721811 -19.353672 -71.893919 56.258406 43.094783 -4.237724 -12.584223 -12.134591 24.918822 -4.088702 -16.496385 14.264106 -37.048436 -1.205558 8.899828 -26.484661 -24.081383 12.391002 -3.777830 
-0.203139 0.197205 0.909992 130.216020 -27.168506 132.533729 8.386276 -22.999172 -59.857333 -12.852701 -14.402350 22.019100 -7.560247 1.833588 -3.757207 0.000000 -0.000000 0.000000 -24.870075 -22.773899 -78.058356 1.868771 -19.409833 47.661876 6.265377 -9.341897 -17.535276 0.000000 -0.000000 0.000000 22.692517 -10.932083 44.626989 0.824458 6.924768 -1.985157 3.265849 2.217976 12.312416 4.436530 -18.578340 -9.898079 4.785497 -7.831046 -15.044780 -8.464149 -14.311149 -2.578095 -70.554641 -6.260167 32.769694 -18.669643 -72.028444 55.599032 43.179936 -4.271150 -12.546971 -12.321499 25.055915 -4.232838 -16.703896 14.114258 -37.188380 -0.879495 8.512219 -26.649103 -23.708738 12.197544 -3.849434 
-0.204430 0.197838 0.909957 130.088840 -27.096831 132.498504 8.371258 -23.088617 -59.955736 -12.937631 -14.411010 22.325820 -7.197300 1.783586 -3.940480 0.000000 -0.000000 0.000000 -24.895015 -22.917999 -77.956720 1.961493 -19.618157 47.596948 6.352255 -8.882869 -17.384135 0.000000 -0.000000 0.000000 22.796533 -10.969255 44.669926 0.753297 6.976359 -2.140772 3.223658 2.268089 12.369528 4.400651 -18.599829 -9.673409 5.000633 -7.833322 -15.475073 -8.461439 -14.378954 -2.599082 -70.587718 -6.212293 32.803238 -18.590174 -72.085934 55.623386 42.936038 -4.037066 -12.507559 -12.459149 25.093625 -4.519915 -16.703183 14.158802 -37.427045 -0.911669 8.338044 -26.691014 -23.208925 11.925773 -4.336157 
-0.205921 0.198096 0.910158 129.697542 -26.848967 132.623940 8.564228 -23.217952 -60.039736 -12.770500 -14.234679 22.375141 -6.961175 2.183550 -4.175653 0.000000 -0.000000 0.000000 -24.884496 -22.671058 -78.027431 2.285804 -19.505848 47.296828 6.407662 -8.985977 -17.216796 0.000000 -0.000000 0.000000 22.707052 -10.813127 44.756289 0.728350 7.171841 -2.069720 3.251359 2.280969 12.405647 4.586268 -18.459614 -10.202421 4.802921 -7.864531 -15.480629 -8.431432 -14.282731 -2.734274 -70.649269 -6.269002 32.880519 -18.722832 -72.060788 55.702993 43.167220 -4.163983 -12.415741 -12.727490 25.044646 -4.818152 -16.815606 14.340387 -37.543943 -1.004583 8.178200 -27.282942 -23.409004 11.533812 -4.561430 
-0.207346 0.198499 0.910485 129.377015 -26.688434 132.695999 8.712225 -23.258777 -60.081127 -12.710269 -13.938391 22.326799 -6.872302 2.347314 -4.211339 0.000000 -0.000000 0.000000 -24.854110 -22.481005 -78.007969 2.391289 -19.352499 46.960750 6.492302 -8.973373 -17.231878 0.000000 -0.000000 0.000000 22.603599 -10.618315 44.788186 0.781750 7.309585 -2.043551 3.328883 2.362916 12.411208 4.603168 -18.177153 -10.525979 4.880290 -8.031802 -15.096842 -8.521920 -14.480189 -2.762077 -70.629485 -6.351712 33.164237 -18.197029 -72.113652 55.102178 42.907796 -4.291421 -12.068909 -12.496644 25.178901 -4.758730 -17.621634 14.059332 -37.767672 -0.637956 7.991915 -27.321580 -22.602014 11.335316 -4.702719 
-0.208935 0.198776 0.910886 129.198842 -26.590271 132.734262 8.767146 -23.289445 -60.168931 -12.691815 -13.786667 22.309696 -6.570571 2.529088 -4.127024 0.000000 -0.000000 0.000000 -24.768741 -22.458658 -77.976243 2.588057 -19.144008 46.631759 6.474083 -8.952532 -17.067823 0.000000 -0.000000 0.000000 22.597901 -10.536133 44.816374 0.797151 7.383714 -2.079375 3.390208 2.370387 12.476571 4.642434 -18.140071 -10.723900 4.822631 -7.980321 -15.216008 -8.510985 -14.609175 -2.814161 -70.587163 -6.417994 33.300150 -18.084249 -72.124092 55.100669 42.933072 -4.401060 -12.087262 -12.568731 25.273425 -4.729719 -18.115019 13.956573 -38.000966 -0.483918 7.669279 -27.241869 -22.289187 11.286979 -4.302779 
